<svg xmlns="http://www.w3.org/2000/svg" viewBox="0 0 1176 24" width="1176" height="24"><g fill="none" stroke="#000000" stroke-width="2" stroke-miterlimit="10"><path d="M3 5h18M3 12h18M3 19h18"/></g><g fill="none" stroke="#000000" stroke-width="2" stroke-miterlimit="10"><path d="M26.998 5l18.004-.037M27 12h18M26.998 18.998l18.004.036"/></g><g fill="none" stroke="#000000" stroke-width="2" stroke-miterlimit="10"><path d="M50.991 5l18.018-.139M51 12h18M50.991 18.991l18.018.139"/></g><g fill="none" stroke="#000000" stroke-width="2" stroke-miterlimit="10"><path d="M74.98 5l18.04-.293M75 12h18M74.98 18.98l18.04.293"/></g><g fill="none" stroke="#000000" stroke-width="2" stroke-miterlimit="10"><path d="M98.968 5l18.064-.486M99 12h18M98.968 18.968l18.064.486"/></g><g fill="none" stroke="#000000" stroke-width="2" stroke-miterlimit="10"><path d="M122.953 5l18.094-.705M123 12h18M122.953 18.953l18.094.705"/></g><g fill="none" stroke="#000000" stroke-width="2" stroke-miterlimit="10"><path d="M146.938 5l18.125-.937M147 12h18M146.938 18.938l18.125.937"/></g><g fill="none" stroke="#000000" stroke-width="2" stroke-miterlimit="10"><path d="M170.922 5l18.156-1.17M171 12h18M170.922 18.922l18.156 1.17"/></g><g fill="none" stroke="#000000" stroke-width="2" stroke-miterlimit="10"><path d="M194.907 5l18.186-1.389M195 12h18M194.907 18.907l18.186 1.389"/></g><g fill="none" stroke="#000000" stroke-width="2" stroke-miterlimit="10"><path d="M218.895 5l18.21-1.582M219 12h18M218.895 18.895l18.21 1.582"/></g><g fill="none" stroke="#000000" stroke-width="2" stroke-miterlimit="10"><path d="M242.884 5l18.232-1.736M243 12h18M242.884 18.884l18.232 1.736"/></g><g fill="none" stroke="#000000" stroke-width="2" stroke-miterlimit="10"><path d="M266.877 5l18.246-1.838M267 12h18M266.877 18.877l18.246 1.839"/></g><g fill="none" stroke="#000000" stroke-width="2" stroke-miterlimit="10"><path d="M290.875 5l18.25-1.875M291 12h18M290.875 18.875l18.25 1.875"/></g><g fill="none" stroke="#000000" stroke-width="2" stroke-miterlimit="10"><path d="M314.878 5l18.244-1.834M315 12h18M314.878 18.878l18.244 1.834"/></g><g fill="none" stroke="#000000" stroke-width="2" stroke-miterlimit="10"><path d="M338.887 5l18.226-1.701M339 12h18M338.887 18.887l18.226 1.701"/></g><g fill="none" stroke="#000000" stroke-width="2" stroke-miterlimit="10"><path d="M362.902 5l18.196-1.465M363 12h18M362.902 18.902l18.196 1.465"/></g><g fill="none" stroke="#000000" stroke-width="2" stroke-miterlimit="10"><path d="M386.926 5l18.148-1.111M387 12h18M386.926 18.926l18.148 1.111"/></g><g fill="none" stroke="#000000" stroke-width="2" stroke-miterlimit="10"><path d="M410.958 5l18.084-.627M411 12h18M410.958 18.958l18.084.627"/></g><g fill="none" stroke="#000000" stroke-width="2" stroke-miterlimit="10"><path d="M435 5h18"/><path d="M435 12h18" stroke-opacity=".999987"/><path d="M435 19h18"/></g><g fill="none" stroke="#000000" stroke-width="2" stroke-miterlimit="10"><path d="M459.052 5l17.896.783"/><path d="M459 12h18" stroke-opacity=".995623"/><path d="M459.052 19.052l17.896-.783"/></g><g fill="none" stroke="#000000" stroke-width="2" stroke-miterlimit="10"><path d="M483.116 5l17.768 1.736"/><path d="M483 12h18" stroke-opacity=".981873"/><path d="M483.116 19.116l17.768-1.736"/></g><g fill="none" stroke="#000000" stroke-width="2" stroke-miterlimit="10"><path d="M507.191 5l17.618 2.871"/><path d="M507 12h18" stroke-opacity=".955786"/><path d="M507.191 19.191l17.618-2.871"/></g><g fill="none" stroke="#000000" stroke-width="2" stroke-miterlimit="10"><path d="M531.28 5l17.44 4.201"/><path d="M531 12h18" stroke-opacity=".913337"/><path d="M531.28 19.28l17.44-4.201"/></g><g fill="none" stroke="#000000" stroke-width="2" stroke-miterlimit="10"><path d="M555.383 5l17.234 5.74"/><path d="M555 12h18" stroke-opacity=".849741"/><path d="M555.383 19.383l17.234-5.74"/></g><g fill="none" stroke="#000000" stroke-width="2" stroke-miterlimit="10"><path d="M579.5 5l17 7.5"/><path d="M579 12h18" stroke-opacity=".761925"/><path d="M579.5 19.5l17-7.5"/></g><g fill="none" stroke="#000000" stroke-width="2" stroke-miterlimit="10"><path d="M603.617 5l16.766 9.26"/><path d="M603 12h18" stroke-opacity=".654602"/><path d="M603.617 19.617l16.766-9.26"/></g><g fill="none" stroke="#000000" stroke-width="2" stroke-miterlimit="10"><path d="M627.72 5l16.56 10.799"/><path d="M627 12h18" stroke-opacity=".542748"/><path d="M627.72 19.72l16.56-10.799"/></g><g fill="none" stroke="#000000" stroke-width="2" stroke-miterlimit="10"><path d="M651.809 5l16.382 12.129"/><path d="M651 12h18" stroke-opacity=".440976"/><path d="M651.809 19.809L668.191 7.68"/></g><g fill="none" stroke="#000000" stroke-width="2" stroke-miterlimit="10"><path d="M675.884 5l16.232 13.264"/><path d="M675 12h18" stroke-opacity=".354924"/><path d="M675.884 19.884L692.116 6.62"/></g><g fill="none" stroke="#000000" stroke-width="2" stroke-miterlimit="10"><path d="M699.948 5l16.104 14.217"/><path d="M699 12h18" stroke-opacity=".28406"/><path d="M699.948 19.948l16.104-14.217"/></g><g fill="none" stroke="#000000" stroke-width="2" stroke-miterlimit="10"><path d="M724 5l16 15"/><path d="M723 12h18" stroke-opacity=".226008"/><path d="M724 20l16-15"/></g><g fill="none" stroke="#000000" stroke-width="2" stroke-miterlimit="10"><path d="M748.042 5l15.916 15.627"/><path d="M747 12h18" stroke-opacity=".178385"/><path d="M748.042 20.042l15.916-15.627"/></g><g fill="none" stroke="#000000" stroke-width="2" stroke-miterlimit="10"><path d="M772.074 5l15.852 16.111"/><path d="M771 12h18" stroke-opacity=".139237"/><path d="M772.074 20.074l15.852-16.111"/></g><g fill="none" stroke="#000000" stroke-width="2" stroke-miterlimit="10"><path d="M796.098 5l15.804 16.465"/><path d="M795 12h18" stroke-opacity=".107046"/><path d="M796.098 20.098l15.804-16.465"/></g><g fill="none" stroke="#000000" stroke-width="2" stroke-miterlimit="10"><path d="M820.113 5l15.774 16.701"/><path d="M819 12h18" stroke-opacity=".080645"/><path d="M820.113 20.113l15.774-16.701"/></g><g fill="none" stroke="#000000" stroke-width="2" stroke-miterlimit="10"><path d="M844.122 5l15.756 16.834"/><path d="M843 12h18" stroke-opacity=".059127"/><path d="M844.122 20.122l15.756-16.834"/></g><g fill="none" stroke="#000000" stroke-width="2" stroke-miterlimit="10"><path d="M868.125 5l15.75 16.875"/><path d="M867 12h18" stroke-opacity=".041782"/><path d="M868.125 20.125l15.75-16.875"/></g><g fill="none" stroke="#000000" stroke-width="2" stroke-miterlimit="10"><path d="M892.123 5l15.754 16.838"/><path d="M891 12h18" stroke-opacity=".028042"/><path d="M892.123 20.123l15.754-16.839"/></g><g fill="none" stroke="#000000" stroke-width="2" stroke-miterlimit="10"><path d="M916.116 5l15.768 16.736"/><path d="M915 12h18" stroke-opacity=".017453"/><path d="M916.116 20.116L931.884 3.38"/></g><g fill="none" stroke="#000000" stroke-width="2" stroke-miterlimit="10"><path d="M940.105 5l15.79 16.582"/><path d="M939 12h18" stroke-opacity=".00964"/><path d="M940.105 20.105l15.79-16.582"/></g><g fill="none" stroke="#000000" stroke-width="2" stroke-miterlimit="10"><path d="M964.093 5l15.814 16.389"/><path d="M963 12h18" stroke-opacity=".004295"/><path d="M964.093 20.093l15.814-16.389"/></g><g fill="none" stroke="#000000" stroke-width="2" stroke-miterlimit="10"><path d="M988.078 5l15.844 16.17"/><path d="M987 12h18" stroke-opacity=".001159"/><path d="M988.078 20.078l15.844-16.17"/></g><g fill="none" stroke="#000000" stroke-width="2" stroke-miterlimit="10"><path d="M1012.063 5l15.875 15.938"/><path d="M1011 12h18" stroke-opacity=".000013"/><path d="M1012.063 20.063l15.875-15.938"/></g><g fill="none"><path d="M1036.047 5l15.906 15.705" stroke="#000000" stroke-width="2" stroke-miterlimit="10"/><path d="M1035 12h18"/><path d="M1036.047 20.047l15.906-15.705" stroke="#000000" stroke-width="2" stroke-miterlimit="10"/></g><g fill="none"><path d="M1060.032 5l15.936 15.486" stroke="#000000" stroke-width="2" stroke-miterlimit="10"/><path d="M1059 12h18"/><path d="M1060.032 20.032l15.936-15.486" stroke="#000000" stroke-width="2" stroke-miterlimit="10"/></g><g fill="none"><path d="M1084.02 5l15.96 15.293" stroke="#000000" stroke-width="2" stroke-miterlimit="10"/><path d="M1083 12h18"/><path d="M1084.02 20.02l15.96-15.293" stroke="#000000" stroke-width="2" stroke-miterlimit="10"/></g><g fill="none"><path d="M1108.009 5l15.982 15.139" stroke="#000000" stroke-width="2" stroke-miterlimit="10"/><path d="M1107 12h18"/><path d="M1108.009 20.009l15.982-15.139" stroke="#000000" stroke-width="2" stroke-miterlimit="10"/></g><g fill="none"><path d="M1132.002 5l15.996 15.037" stroke="#000000" stroke-width="2" stroke-miterlimit="10"/><path d="M1131 12h18"/><path d="M1132.002 20.002l15.996-15.036" stroke="#000000" stroke-width="2" stroke-miterlimit="10"/></g><g fill="none"><path d="M1156 5l16 15" stroke="#000000" stroke-width="2" stroke-miterlimit="10"/><path d="M1155 12h18"/><path d="M1156 20l16-15" stroke="#000000" stroke-width="2" stroke-miterlimit="10"/></g></svg>