<?xml version="1.0" standalone="no"?><!DOCTYPE svg PUBLIC "-//W3C//DTD SVG 1.1//EN" "http://www.w3.org/Graphics/SVG/1.1/DTD/svg11.dtd"><svg t="1543853410143" class="icon" style="" viewBox="0 0 1024 1024" version="1.1" xmlns="http://www.w3.org/2000/svg" p-id="4791" xmlns:xlink="http://www.w3.org/1999/xlink" width="128" height="128"><defs><style type="text/css"></style></defs><path d="M448.000022 704.000078h127.999956v319.99989h-127.999956z" fill="#B48966" p-id="4792"></path><path d="M511.264 64.000298a15.999995 15.999995 0 0 0-13.119995 7.999997l-143.999951 223.999923a15.999995 15.999995 0 0 0 0 15.999995 15.999995 15.999995 0 0 0 13.855995 7.999997h287.999902a15.999995 15.999995 0 0 0 13.887995-7.999997 15.999995 15.999995 0 0 0 0-15.999995l-143.999951-223.999923A15.999995 15.999995 0 0 0 512 64.000298a15.999995 15.999995 0 0 0-0.736 0z" fill="#00C379" p-id="4793"></path><path d="M510.944 185.600256a22.399992 22.399992 0 0 0-18.303993 11.199996l-201.631931 313.599893a22.399992 22.399992 0 0 0 0 22.399992 22.399992 22.399992 0 0 0 19.359993 11.199996H713.599931a22.399992 22.399992 0 0 0 19.391993-11.199996 22.399992 22.399992 0 0 0 0-22.399992l-201.599931-313.599893A22.399992 22.399992 0 0 0 512 185.600256a22.399992 22.399992 0 0 0-1.056 0z" fill="#00C379" p-id="4794"></path><path d="M512 307.200214a28.79999 28.79999 0 0 0-24.959991 14.399995l-259.167911 403.199862a28.79999 28.79999 0 0 0 0 28.79999 28.79999 28.79999 0 0 0 24.959991 14.399995H771.199911a28.79999 28.79999 0 0 0 24.927991-14.399995 28.79999 28.79999 0 0 0 0-28.79999l-259.199911-403.199862A28.79999 28.79999 0 0 0 512 307.200214z" fill="#00C379" p-id="4795"></path><path d="M543.103989 95.936287c-1.791999 1.216-29.72799-17.407994-31.903989-17.407994-2.111999 0-28.76799 18.623994-30.399989 17.343994-1.727999-1.344 7.359997-33.663988 6.687997-35.711988-0.64-2.015999-26.623991-21.599993-25.919991-23.583992 0.768-2.047999 34.271988-3.391999 36.063988-4.671998 1.695999-1.248 12.319996-31.967989 14.399995-31.903989 2.175999 0.064 13.823995 31.551989 15.583995 32.831989 1.695999 1.248 34.239988 1.823999 34.783988 3.839998 0.64 2.111999-25.727991 22.879992-26.399991 24.959992-0.64 2.015999 8.831997 33.119989 7.103997 34.303988z" fill="#E6001F" p-id="4796"></path><path d="M480.000011 176.000259a15.999995 15.999995 0 0 1-15.999995 15.999995 15.999995 15.999995 0 0 1-15.999994-15.999995 15.999995 15.999995 0 0 1 15.999994-15.999994 15.999995 15.999995 0 0 1 15.999995 15.999994z" fill="#E6001F" p-id="4797"></path><path d="M607.999967 272.000226a15.999995 15.999995 0 0 1-15.999994 15.999995 15.999995 15.999995 0 0 1-15.999995-15.999995 15.999995 15.999995 0 0 1 15.999995-15.999994 15.999995 15.999995 0 0 1 15.999994 15.999994z" fill="#FF9A00" p-id="4798"></path><path d="M432.000027 400.000182a15.999995 15.999995 0 0 1-15.999994 15.999995 15.999995 15.999995 0 0 1-15.999995-15.999995 15.999995 15.999995 0 0 1 15.999995-15.999994 15.999995 15.999995 0 0 1 15.999994 15.999994z" fill="#E6001F" p-id="4799"></path><path d="M671.999945 496.000149a15.999995 15.999995 0 0 1-15.999994 15.999995 15.999995 15.999995 0 0 1-15.999995-15.999995 15.999995 15.999995 0 0 1 15.999995-15.999994 15.999995 15.999995 0 0 1 15.999994 15.999994z" fill="#FF9A00" p-id="4800"></path><path d="M543.999989 448.000166a15.999995 15.999995 0 0 1-15.999994 15.999994 15.999995 15.999995 0 0 1-15.999995-15.999994 15.999995 15.999995 0 0 1 15.999995-15.999995 15.999995 15.999995 0 0 1 15.999994 15.999995z" fill="#006EF4" p-id="4801"></path><path d="M384.000044 496.000149a15.999995 15.999995 0 0 1-15.999995 15.999995 15.999995 15.999995 0 0 1-15.999994-15.999995 15.999995 15.999995 0 0 1 15.999994-15.999994 15.999995 15.999995 0 0 1 15.999995 15.999994z" fill="#00A654" p-id="4802"></path><path d="M639.999956 624.000105a15.999995 15.999995 0 0 1-15.999994 15.999995 15.999995 15.999995 0 0 1-15.999995-15.999995 15.999995 15.999995 0 0 1 15.999995-15.999994 15.999995 15.999995 0 0 1 15.999994 15.999994z" fill="#006EF4" p-id="4803"></path><path d="M384.000044 624.000105a15.999995 15.999995 0 0 1-15.999995 15.999995 15.999995 15.999995 0 0 1-15.999994-15.999995 15.999995 15.999995 0 0 1 15.999994-15.999994 15.999995 15.999995 0 0 1 15.999995 15.999994z" fill="#E6001F" p-id="4804"></path><path d="M543.999989 688.000083a15.999995 15.999995 0 0 1-15.999994 15.999995 15.999995 15.999995 0 0 1-15.999995-15.999995 15.999995 15.999995 0 0 1 15.999995-15.999994 15.999995 15.999995 0 0 1 15.999994 15.999994z" fill="#00A654" p-id="4805"></path><path d="M735.999923 720.000072a15.999995 15.999995 0 0 1-15.999994 15.999995 15.999995 15.999995 0 0 1-15.999995-15.999995 15.999995 15.999995 0 0 1 15.999995-15.999994 15.999995 15.999995 0 0 1 15.999994 15.999994z" fill="#FF9A00" p-id="4806"></path><path d="M413.440034 320.00021l-20.639993 31.999989h238.399918l-20.639993-31.999989h-197.119932zM344.128058 544.000133l-20.575993 31.999989H700.479935l-20.575993-31.999989H344.128058z" fill="#00A654" p-id="4807"></path><path d="M320.000066 720.000072a15.999995 15.999995 0 0 1-15.999995 15.999995 15.999995 15.999995 0 0 1-15.999994-15.999995 15.999995 15.999995 0 0 1 15.999994-15.999994 15.999995 15.999995 0 0 1 15.999995 15.999994z" fill="#006EF4" p-id="4808"></path><path d="M448.000022 768.000056h127.999956v31.999989h-127.999956z" fill="#8A6845" p-id="4809"></path></svg>